<?xml version="1.0" encoding="utf-8"?>
<!-- Generator: Adobe Illustrator 19.2.1, SVG Export Plug-In . SVG Version: 6.00 Build 0)  -->
<svg version="1.1" id="layer" xmlns="http://www.w3.org/2000/svg" xmlns:xlink="http://www.w3.org/1999/xlink" x="0px" y="0px"
	 viewBox="0 0 652 652" style="enable-background:new 0 0 652 652;" xml:space="preserve">
<style type="text/css">
	.st0{fill:#8C1515;}
</style>
<g>
	<path class="st0" d="M179.3,312.9c-21.4,0-23.1-16.3-23.1-21.1c0-5.7,1.3-16.3,15.2-21.4c13.9-5.1,16.9-5.7,26.8-8.8v-2.4
		c0-4.8,0-5.7-1.1-8.8c-1.7-5.5-7.1-9.2-14.6-9.2c-7.1,0-13.2,4-16,9.9l-4-2.4c2.4-8.8,11.5-17.6,27.1-17.6
		c10.8,0,18.3,3.1,22.7,9.9c3.3,5.5,3.7,12.9,3.7,20.4c0,6.8-0.4,14.3-0.4,20.4c0,4-0.4,7.9-0.4,10.1c0,5.5,1.1,9.9,5.5,9.9
		c2,0,2.4-0.7,4-1.7l2.4,3.1c-4,5.5-8.8,9.9-16.7,9.9c-6.1,0-10.5-3.1-12.3-8.1C195.6,308.5,189.1,312.9,179.3,312.9z M198.2,271.4
		c-10.5,3.1-14.3,4.8-17.3,6.4c-4.8,2.4-6.8,6.8-6.8,12.5c0,4.4,1.7,11.5,11.9,11.5c3.3,0,8.1-0.7,12.5-3.7v-26.8H198.2L198.2,271.4
		z M21.5,308.7c0-7.9,0-14.6-0.7-22.7h4.8c0,5.1,1.3,8.8,3.7,11.2c3.3,3.7,11.2,6.1,18.3,6.1c14.9,0,22-5.7,22-18
		c0-10.5-6.4-14.9-15.2-21.1l-1.3-1.1l-9.5-6.4c-13.2-8.8-20-15.6-20-29.5c0-6.8,2.7-29.2,35.6-29.2c8.5,0,19.3,1.1,25.8,2
		c0,1.1-0.4,6.1-0.4,10.5c0,5.1,0,6.4,0.4,12.5h-4c0-5.5-1.7-8.8-4-11.2c-3.1-3.1-10.1-4.8-17.6-4.8c-17.6,0-19.6,8.8-19.6,15.6
		c0,9.2,4.8,12.5,15.2,19.3l11.9,7.9c10.1,6.8,19.6,13.2,19.6,30.2c0,28.5-26.8,31.5-38,31.5C38.2,312.9,29.6,311.4,21.5,308.7z
		 M234.5,236.2c4,0.4,10.1,0,16-1.1c5.1-1.1,6.8-1.7,10.5-3.3l1.7,1.1v6.1c4-3.1,11.9-7.5,23.1-7.5c14.3,0,23.5,6.8,26.1,18.7
		c0.7,3.1,1.1,10.1,1.1,14.3v23.1c0,12.9,0.7,16.7,3.1,19c1.3,1.1,4,2.4,7.9,2.4v3.7c-5.1-0.4-14.3-0.7-19.6-0.7
		c-7.1,0-15.2,0.4-19.6,0.7v-3.7c4-0.4,6.4-1.7,7.9-2.7c2.4-2.4,2.7-6.8,3.1-16.7c0-3.1,0.4-9.2,0.4-13.6c0-5.7,0-11.9-0.7-18
		c-1.1-10.1-6.4-14.9-16.7-14.9c-7.1,0-11.5,1.7-14.9,3.3v41.4c0,12.9,0.7,16.7,3.1,19c1.3,1.1,4.4,2.4,7.5,2.4v3.7
		c-6.4-0.4-14.3-0.7-19.3-0.7c-10.5,0-13.9,0.4-20,0.7v-3.9c3.3,0,6.8-1.3,8.5-3.3c2.4-2.7,2.7-9.5,2.7-22.7v-23.5
		c0-9.9-0.4-13.9-1.7-16c-1.1-1.7-3.7-3.1-9.2-3.1v-4.4h-0.7V236.2z M332.6,308.5c3.3,0,6.8-1.1,8.5-3.3c2.4-2.7,2.7-9.5,2.7-22.7
		V243h-10.1v-4.4c4.4-1.7,8.1-3.7,10.1-5.5c0-7.1,0.4-16,1.3-21.1c3.1-16.3,13.6-24.4,31.5-24.4c7.9,0,15.2,2.7,20,6.4l0.4,1.7
		l-7.9,10.8h-2c-2.7-6.4-6.8-10.1-13.9-10.1c-2.4,0-5.7,0.7-7.9,2.7c-3.3,3.3-4,8.5-4,18.7v15.2h17.6v9.9h-17.6v43.8
		c0,10.5,0.4,15.6,1.7,17.6c2,3.3,9.2,3.7,12.5,3.7v4c-5.7-0.4-14.9-0.7-21.4-0.7c-9.9,0-16.3,0.4-21.4,0.7L332.6,308.5L332.6,308.5
		z M423.5,313.5c-24,0-38.3-14.9-38.3-40c0-19.6,10.5-42.4,40-42.4c24,0,38.3,14.9,38.3,40C463.5,290.7,452.9,313.5,423.5,313.5z
		 M424.5,240.2c-4.8,0-8.5,1.3-11.2,3.7c-6.4,5.5-9.5,14.9-9.5,28.8c0,5.5,1.1,31.9,20.4,31.9c4.8,0,8.5-1.3,11.2-3.7
		c6.4-5.5,9.5-14.9,9.5-28.8C444.8,266.7,443.9,240.2,424.5,240.2z M471.6,235.8c5.5,0.4,11.2-0.4,17.3-1.3c4.8-0.7,7.9-1.7,9.5-2.7
		l1.3,0.7v6.8c3.7-3.7,9.9-7.5,18.3-7.5c6.1,0,10.1,1.7,13.9,4.8v2.4l-6.8,12.3h-3.3c-2-3.7-6.1-7.1-13.2-7.1
		c-3.3,0-6.1,0.7-8.5,2.4v40.4c0,10.5,0.4,15.2,1.7,17.3c2,3.3,8.8,3.7,12.5,3.3v4.4c-5.5-0.4-14.9-0.7-21.4-0.7
		c-7.5,0-15.2,0-21.4,0.7v-4c4.4-0.4,6.8-1.3,8.5-3.3c2.4-2.7,2.7-9.2,2.7-22.7v-22c0-9.9,0-13.9-1.7-16c-1.3-1.7-4-2.7-9.2-2.7
		v-5.1L471.6,235.8L471.6,235.8z M582.6,192.4c4.8,0,10.8-1.1,18.7-2.4c4.4-0.7,7.1-1.7,8.5-2l1.3,0.7c-0.7,6.4-0.7,21.1-0.7,31.5
		v64.4c0,9.5,0,15.6,1.3,17.6c1.3,1.7,4,3.1,9.2,3.1v4c-5.1,0-10.8,0.7-16.9,1.7c-4,0.7-7.1,1.3-8.8,2l-2-0.7v-6.8
		c-4,3.1-11.5,7.5-22,7.5c-21.7,0-35.6-14.9-35.6-38.3c0-7.9,1.3-14.9,4-21.4c6.8-14.3,20.4-22.4,37.6-22.4c6.4,0,11.9,0.7,15.2,1.3
		v-16.7c0-9.9,0-14.9-1.7-17.3c-1.1-1.7-2.7-2.4-8.5-2.7v-3.2H582.6z M579.8,301.9c5.5,0,9.2-0.7,12.9-3.1V246
		c-1.3-1.3-6.1-5.5-15.6-5.5c-15.2,0-22.7,10.5-22.7,32.3C554.1,281.9,556.8,301.9,579.8,301.9z M148.4,304.3
		c-2.4,3.1-8.5,9.2-21.4,9.2c-12.3,0-19-4.4-22-14.3c-1.3-3.7-1.3-11.5-1.3-16c0-12.5,0-22.7,0.4-34.6v-5.5H93.5V240
		c4-1.7,7.1-3.3,9.9-5.5c6.1-4.8,10.1-10.5,14.6-19h3.3v17.6h26.8v9.9h-26.8v41.4c0,12.5,2.4,19.3,13.9,19.3c5.5,0,9.2-1.7,11.2-3.1
		L148.4,304.3z"/>
	<path class="st0" d="M524.3,378.3c-1.3,0-3.1,0.4-4,1.3c-1.1,0.7-1.1,1.7-1.1,2.4c0,1.3,0.4,2.4,1.3,5.1l7.5,19.6
		c1.1,3.1,2,5.5,2.4,7.1l9.2-26.8c1.1-3.1,1.3-3.7,1.3-5.1c0-0.7-0.4-1.3-1.1-2c-1.1-0.7-2.4-1.3-4-1.3v-3.1c1.1,0,3.3,0,4.4,0.4
		c1.1,0,3.1,0.4,4.8,0.4c3.3,0,8.1-0.4,10.1-0.4v3.1c-1.3,0.4-4.4-0.4-7.1,7.5l-19.3,51.5c-2.7,7.5-6.4,16.7-19.6,16.7
		c-5.5,0-9.2-1.3-12.3-4v-1.3l4.8-5.7h1.3c1.3,3.1,4,4.4,7.9,4.4c6.1,0,8.8-5.5,12.9-16.3l1.1-3.1l-16.2-42.3c0-0.4-0.4-1.1-0.7-1.7
		c-0.4-1.1-1.3-3.1-1.3-3.1c-1.1-2-2.7-2.7-4.8-2.7v-3.1c3.1,0.4,8.5,0.4,11.2,0.4c1.7,0,4.4,0,7.1-0.4c1.3,0,3.7-0.4,4.8-0.4v2.7
		h-0.4V378.3z M344.7,377.6c3.3,0.4,7.1-0.4,10.8-1.1c3.1-0.7,4.8-1.1,6.1-1.7l1.1,0.4v4.4c2.4-2.4,6.1-4.8,11.5-4.8
		c4,0,6.4,1.1,8.8,3.1v1.7l-4,7.9h-2c-1.3-2.4-3.7-4.4-8.5-4.4c-2,0-3.7,0.7-5.5,1.7v25.5c0,6.8,0.4,9.9,1.1,11.2
		c1.3,2,5.5,2.4,7.9,2.4v2.7c-3.3-0.4-9.5-0.4-13.6-0.4c-4.8,0-9.9,0-13.6,0.7v-2.7c2.7,0,4.4-1.1,5.5-2c1.7-1.7,1.7-5.7,1.7-14.6
		v-14.3c0-6.1,0-8.8-1.1-10.1c-0.7-1.1-2.7-1.7-5.7-1.7v-3.7h-0.5V377.6z M118.9,426.8c-14.3,0-22.7-4.4-25.8-13.9
		c-1.7-4.8-1.7-10.8-1.7-15.6v-27.1c0-8.1-0.4-9.5-2-10.8c-0.7-0.7-2.4-1.3-4.8-1.7v-2.7c3.3,0.4,9.2,0.7,12.5,0.7
		c5.7,0,9.2,0,12.9-0.7v3.1c-2.4,0-4,0.7-5.5,2c-1.7,1.7-1.7,4.8-1.7,13.6v24c0,14.3,1.3,23.5,17.3,23.5c16.3,0,17.3-9.5,17.3-24
		v-26.4c0-8.1-0.4-9.5-2-10.8c-1.1-0.7-2.7-1.3-4.8-1.7v-2.7c3.1,0,7.1,0.4,11.2,0.4c3.7,0,7.5,0,11.9-0.7v3.1c-2.4,0-4,0.7-5.5,2
		c-1.7,1.7-1.7,4.8-1.7,13.6v20.4c0,6.4,0,13.6-2,19.3C141.3,422.4,133.1,426.8,118.9,426.8z M215.6,423.7c2.7-0.4,4.4-0.7,5.7-2
		c1.7-1.7,1.7-5.7,1.7-14.6v-14.3c0-6.1,0-9.2-1.1-10.5c-0.7-1.1-2-1.7-5.7-2v-3.1c2,0.4,7.5-0.4,11.5-1.1c2-0.4,4-1.1,5.5-1.7
		l1.1,1.1c-0.4,3.3-0.4,10.5-0.4,20v14.6c0,6.8,0.4,9.9,1.1,11.2c1.1,1.3,3.1,2.4,6.1,2.4v2.4c-2.7-0.4-7.9-0.4-12.3-0.4
		c-5.1,0-10.5,0.4-13.2,0.7L215.6,423.7L215.6,423.7z M228.1,365.7c-4,0-6.4-2.4-6.4-6.1c0-3.7,2.7-6.4,6.8-6.4c4,0,6.4,2.4,6.4,6.1
		C234.8,363.3,232.1,365.7,228.1,365.7z M430,423.7c2.7-0.4,4.4-0.7,5.7-2c1.7-1.7,1.7-5.7,1.7-14.6v-14.3c0-6.1,0-9.2-1.1-10.5
		c-0.7-1.1-2-1.7-5.7-2v-3.1c2,0.4,7.5-0.4,11.5-1.1c2-0.4,4.4-1.1,5.5-1.7l1.1,1.1c-0.4,3.3-0.4,10.5-0.4,20v14.6
		c0,6.8,0.4,9.9,1.1,11.2c1.1,1.3,3.1,2.4,6.1,2.4v2.4c-3.1-0.4-8.1-0.4-12.5-0.4c-5.1,0-10.5,0.4-13.2,0.7v-2.7H430z M442.5,365.7
		c-4,0-6.4-2.4-6.4-6.1c0-3.7,2.7-6.4,6.8-6.4c4,0,6.4,2.4,6.4,6.1C449.3,363.3,446.5,365.7,442.5,365.7z M388.9,424.4
		c0-5.1-0.4-10.5-0.7-13.2h3.3c0,2.7,0.7,5.1,2,6.4c2,2.4,4.4,3.3,8.8,3.3h0.7c5.5,0,8.5-2.4,8.5-7.1c0-3.7-2.4-5.5-6.4-7.9
		l-7.1-4.4c-3.7-2.4-8.1-5.7-8.1-12.9c0-5.7,2.4-10.1,7.1-12.5c3.1-1.7,7.9-1.7,10.1-1.7c4,0,9.9,0.7,13.2,1.3
		c-0.4,1.3-0.4,4.8-0.4,6.1c0,1.1,0,5.7,0.4,6.8H417c0-2-0.7-4-2-5.7s-4.4-2.7-8.1-2.7c-5.1,0-7.9,2-7.9,6.4c0,3.3,2.7,5.1,5.1,6.8
		h0.4l6.8,4c4.4,2.7,10.1,6.1,10.1,13.9c0,13.2-12.3,15.2-19.3,15.2C398.1,426.4,393.7,426.1,388.9,424.4z M495.4,421.1
		c-1.7,1.7-5.5,5.7-13.6,5.7c-7.9,0-12.3-2.7-13.9-9.2c-0.7-2.4-0.7-7.5-0.7-10.1c0-8.1,0-14.6,0-22v-3.3h-6.8v-2
		c2.7-1.1,4.4-2,6.4-3.3c3.7-3.1,6.4-6.8,9.5-12.3h2.4v11.2h16.9v6.1h-16.9v26.4c0,7.9,1.3,12.5,8.8,12.5c3.3,0,5.7-1.1,7.1-2
		L495.4,421.1z M266,375.6c-1.1,0-3.3,0-4.8,0.4c-2.7,0-5.5,0.4-7.5,0.4c-3.7,0-9.2-0.4-10.8-0.4v3.1c0.7,0,3.3-0.4,5.1,3.1
		c0.7,1.3,1.1,2.4,1.3,3.1c0.4,0.7,0.7,1.3,0.7,1.7l16.3,40.7l5.1-1.1l18-40c0-0.4,0.4-0.7,0.7-1.3c0.4-0.4,0.4-1.1,1.7-3.1
		c1.1-2,3.3-3.1,5.1-3.1V376c-2,0-6.4,0.4-9.9,0.4c-1.7,0-3.3,0-5.1-0.4c-1.3,0-3.3-0.4-4.8-0.4v2.7c1.7,0,3.3,0.7,4,1.3
		c0.4,0.4,1.1,1.3,1.1,2c0,1.1-0.4,2-1.3,5.1l-9.9,24c-0.4-1.3-1.1-3.3-2-6.1l-6.8-18c-1.1-2.7-1.3-3.7-1.3-5.1c0-0.7,0-1.3,0.7-1.7
		c1.1-1.1,2.7-1.7,4.4-1.7v-2.7H266z M155.2,377.6c2.7,0.4,6.4,0,10.1-0.7c3.1-0.7,4.4-1.1,6.8-2l1.1,0.7v4c2.4-2,7.9-4.8,14.6-4.8
		c9.2,0,14.9,4.4,16.7,11.9c0.4,2,0.7,6.4,0.7,9.2v14.6c0,8.1,0.4,10.5,2,12.3c0.7,0.7,2.7,1.3,4.8,1.3v2.4c-3.3,0-9.2-0.4-12.5-0.4
		c-4.8,0-9.9,0.4-12.5,0.7v-2.4c2.4-0.4,4-1.1,5.1-1.7c1.3-1.3,1.7-4.4,2-10.5c0-2,0-5.7,0-8.8c0-3.7,0-7.9-0.4-11.5
		c-0.7-6.4-4-9.5-10.5-9.5c-4.4,0-7.5,1.1-9.5,2V411c0,8.1,0.4,10.5,2,12.3c0.7,0.7,2.7,1.3,4.8,1.3v2.4c-4.4-1.1-9.5-1.1-12.9-1.1
		c-6.8,0-8.8,0-12.5,0.7v-2.4c2,0,4.4-0.7,5.5-2c1.3-1.7,1.7-6.1,1.7-14.6v-14.3c0-6.1,0-8.8-1.1-10.1c-0.7-1.1-2.4-2-5.7-1.7v-3.8
		H155.2z M320,426.8c-15.2,0-23.5-8.8-23.5-24.8c0-2.7,0.7-27.5,23.7-27.5c6.8,0,12.9,2.7,15.6,7.5c3.1,4.8,3.3,9.5,3.3,13.6v3.1
		h-31.5c0,2.7,0.4,4.8,0.7,6.4c1.7,9.9,7.1,14.6,16.7,14.6c5.5,0,8.8-1.1,11.9-3.1l1.3,2.4C335,423.5,328.2,426.8,320,426.8z
		 M307.8,392.9h19.6c0-6.1-1.1-12.9-9.9-12.9C309.8,380.4,308.2,387.7,307.8,392.9z"/>
</g>
</svg>
